<?xml version="1.0" encoding="UTF-8" standalone="no"?>
<!-- Generator: Adobe Illustrator 21.1.0, SVG Export Plug-In . SVG Version: 6.00 Build 0)  -->

<svg
   version="1.1"
   x="0px"
   y="0px"
   viewBox="0 0 167.60001 167.6"
   xml:space="preserve"
   id="svg906"
   sodipodi:docname="discord.svg"
   width="167.60001"
   height="167.60001"
   inkscape:version="1.2.2 (b0a8486541, 2022-12-01)"
   inkscape:export-filename="Reddit_logo_new.svg"
   inkscape:export-xdpi="96.230003"
   inkscape:export-ydpi="96.230003"
   xmlns:inkscape="http://www.inkscape.org/namespaces/inkscape"
   xmlns:sodipodi="http://sodipodi.sourceforge.net/DTD/sodipodi-0.dtd"
   xmlns="http://www.w3.org/2000/svg"
   xmlns:svg="http://www.w3.org/2000/svg"><defs
   id="defs910"><style
     id="style440">.cls-1{fill:#fff;}</style></defs><sodipodi:namedview
   id="namedview908"
   pagecolor="#ffffff"
   bordercolor="#666666"
   borderopacity="1.0"
   inkscape:pageshadow="2"
   inkscape:pageopacity="0.0"
   inkscape:pagecheckerboard="0"
   showgrid="false"
   fit-margin-top="0"
   fit-margin-left="0"
   fit-margin-right="0"
   fit-margin-bottom="0"
   inkscape:zoom="1.8559973"
   inkscape:cx="68.426824"
   inkscape:cy="91.594961"
   inkscape:window-width="889"
   inkscape:window-height="988"
   inkscape:window-x="10"
   inkscape:window-y="197"
   inkscape:window-maximized="1"
   inkscape:current-layer="svg906"
   inkscape:showpageshadow="2"
   inkscape:deskcolor="#d1d1d1" />
<style
   type="text/css"
   id="style868">
	.st0{fill:#FF4500;}
	.st1{fill:#222222;}
	.st2{fill:#FFFFFF;}
	.st3{display:none;}
	.st4{display:inline;fill:none;stroke:#D8D8D8;stroke-width:0.4925;stroke-miterlimit:10;}
	.st5{display:inline;fill:none;stroke:#D8D8D8;stroke-width:0.5589;stroke-miterlimit:10;}
	.st6{display:inline;}
</style>


<path
   class="cls-1"
   d="m 141.83704,31.049548 a 138.28746,138.28746 0 0 0 -34.49624,-10.613211 94.769323,94.769323 0 0 0 -4.41889,8.982431 128.46333,128.46333 0 0 0 -38.283859,0 A 95.177018,95.177018 0 0 0 60.219164,20.436337 139.26067,139.26067 0 0 0 25.696618,31.07585 C 3.8652165,63.375803 -2.0529344,94.873517 0.90614102,125.92408 v 0 a 139.05024,139.05024 0 0 0 42.30820298,21.23959 102.18674,102.18674 0 0 0 9.061347,-14.61126 89.982197,89.982197 0 0 1 -14.26932,-6.81245 c 1.196782,-0.86799 2.367261,-1.76229 3.498285,-2.63029 a 99.385481,99.385481 0 0 0 84.590104,0 c 1.14418,0.93376 2.31466,1.82805 3.49829,2.63029 a 90.324134,90.324134 0 0 1 -14.29563,6.8256 101.26614,101.26614 0 0 0 9.06135,14.59811 138.41897,138.41897 0 0 0 42.33451,-21.22644 v 0 C 170.16526,89.928573 160.76197,58.720191 141.83704,31.049548 Z M 56.023853,106.82818 c -8.245957,0 -15.058406,-7.483171 -15.058406,-16.689184 0,-9.206012 6.575723,-16.754942 15.032103,-16.754942 8.45638,0 15.216224,7.54893 15.071558,16.754942 -0.144666,9.206013 -6.641481,16.689184 -15.045255,16.689184 z m 55.551707,0 c -8.25911,0 -15.045252,-7.483171 -15.045252,-16.689184 0,-9.206012 6.575722,-16.754942 15.045252,-16.754942 8.46954,0 15.17677,7.54893 15.03211,16.754942 -0.14467,9.206013 -6.62833,16.689184 -15.03211,16.689184 z"
   id="path444"
   style="stroke-width:1.31514" /></svg>
