<svg version="1.2" xmlns="http://www.w3.org/2000/svg" viewBox="0 0 512 512" width="512" height="512">
	<title>github-svg</title>
	<style>
		.s0 { fill: #ffffff } 
	</style>
	<path id="Layer" fill-rule="evenodd" class="s0" d="m510.1 262.4c0 113.7-73.2 210-174.6 244.1-12.6 2.6-17.3-5.5-17.3-12.3 0-8.6 0.4-36.3 0.4-70.8 0-24.3-8-39.6-17.3-47.7 57-6.4 116.6-28.1 116.6-127 0-28.1-9.7-51.1-26.2-69 2.6-6.4 11.4-32.8-2.5-68.2 0 0-21.6-6.8-70.2 26.4-20.2-5.5-42.2-8.5-63.8-8.5q-8 0-16.1 0.6-8 0.5-16 1.6-8.1 1-16 2.6-7.9 1.6-15.7 3.7c-48.6-33.2-70.1-26.4-70.1-26.4-14 35.4-5.1 61.8-2.6 68.2-16 17.9-26.2 40.9-26.2 69 0 98.9 59.6 121 116.3 127-7.2 6.4-14 17.9-16.1 34.5-14.8 6.8-51.6 17.9-74.4-21.3 0 0-13.5-24.7-39.3-26.4 0 0-24.9 0-1.7 15.8 0 0 16.9 7.6 28.3 37.5 0 0 14.8 46 85.8 30.6 0 21.3 0.4 41.8 0.4 47.8 0 6.8-4.6 14.9-17.3 12.3-101.4-34.1-174.5-130.4-174.5-244.1 0-142.4 114.1-257.4 255.2-257.4 140.8 0 255.3 115 254.9 257.4z"/>
</svg>