<?xml version="1.0" encoding="UTF-8" standalone="no"?>
<!-- Generator: Adobe Illustrator 21.1.0, SVG Export Plug-In . SVG Version: 6.00 Build 0)  -->

<svg
   version="1.1"
   x="0px"
   y="0px"
   viewBox="0 0 167.60001 167.6"
   xml:space="preserve"
   id="svg906"
   sodipodi:docname="reddit.svg"
   width="167.60001"
   height="167.60001"
   inkscape:version="1.2.2 (b0a8486541, 2022-12-01)"
   xmlns:inkscape="http://www.inkscape.org/namespaces/inkscape"
   xmlns:sodipodi="http://sodipodi.sourceforge.net/DTD/sodipodi-0.dtd"
   xmlns="http://www.w3.org/2000/svg"
   xmlns:svg="http://www.w3.org/2000/svg"><defs
   id="defs910" /><sodipodi:namedview
   id="namedview908"
   pagecolor="#ffffff"
   bordercolor="#666666"
   borderopacity="1.0"
   inkscape:pageshadow="2"
   inkscape:pageopacity="0.0"
   inkscape:pagecheckerboard="0"
   showgrid="false"
   fit-margin-top="0"
   fit-margin-left="0"
   fit-margin-right="0"
   fit-margin-bottom="0"
   inkscape:zoom="1.8559973"
   inkscape:cx="114.2243"
   inkscape:cy="137.93124"
   inkscape:window-width="825"
   inkscape:window-height="988"
   inkscape:window-x="845"
   inkscape:window-y="197"
   inkscape:window-maximized="1"
   inkscape:current-layer="svg906"
   inkscape:showpageshadow="2"
   inkscape:deskcolor="#d1d1d1" />
<style
   type="text/css"
   id="style868">
	.st0{fill:#FF4500;}
	.st1{fill:#222222;}
	.st2{fill:#FFFFFF;}
	.st3{display:none;}
	.st4{display:inline;fill:none;stroke:#D8D8D8;stroke-width:0.4925;stroke-miterlimit:10;}
	.st5{display:inline;fill:none;stroke:#D8D8D8;stroke-width:0.5589;stroke-miterlimit:10;}
	.st6{display:inline;}
</style>
<path
   class="st2"
   d="m 167.58881,84.19984 c 0,-10.198637 -8.2489,-18.297554 -18.29755,-18.297554 -4.94934,0 -9.44874,1.949739 -12.7483,5.099318 C 123.94465,62.002807 106.69695,56.153589 87.499519,55.403689 l 8.398877,-39.294747 27.296354,5.849218 c 0.29996,6.899078 5.99919,12.448336 13.04825,12.448336 7.19904,0 13.04826,-5.849218 13.04826,-13.048255 0,-7.199038 -5.84922,-13.0482561 -13.04826,-13.0482561 -5.09932,0 -9.59871,2.9995991 -11.69843,7.3490171 L 94.098637,9.2098646 c -0.89988,-0.1499799 -1.79976,0 -2.39968,0.4499399 -0.749899,0.4499395 -1.199839,1.1998395 -1.349819,2.0997195 l -9.298757,43.794145 c -19.497394,0.59992 -37.045048,6.449138 -49.793343,15.597915 -3.299559,-3.149579 -7.798958,-5.099318 -12.748296,-5.099318 -10.1986368,0 -18.29755408,8.248897 -18.29755408,18.297554 0,7.498997 4.49939848,13.798155 10.79855608,16.64777 -0.29996,1.79976 -0.44994,3.59952 -0.44994,5.54926 0,28.19623 32.84561,51.14317 73.340196,51.14317 40.49459,0 73.3402,-22.79696 73.3402,-51.14317 0,-1.79976 -0.14998,-3.7495 -0.44994,-5.54926 6.29915,-2.849615 10.79855,-9.298753 10.79855,-16.79775 z M 41.905614,97.248095 c 0,-7.199037 5.849218,-13.048255 13.048256,-13.048255 7.199037,0 13.048255,5.849218 13.048255,13.048255 0,7.199035 -5.849218,13.048255 -13.048255,13.048255 -7.199038,0.14998 -13.048256,-5.84922 -13.048256,-13.048255 z m 73.040236,34.645365 c -8.9988,8.9988 -26.096512,9.59872 -31.04585,9.59872 -5.099318,0 -22.197033,-0.7499 -31.04585,-9.59872 -1.349819,-1.34982 -1.349819,-3.44954 0,-4.79935 1.34982,-1.34982 3.449539,-1.34982 4.799359,0 5.699238,5.69923 17.697634,7.64897 26.246491,7.64897 8.548857,0 20.69723,-1.94974 26.24649,-7.64897 1.34982,-1.34982 3.44954,-1.34982 4.79936,0 1.19984,1.34981 1.19984,3.44953 0,4.79935 z m -2.39968,-21.44713 c -7.19904,0 -13.048255,-5.84922 -13.048255,-13.048255 0,-7.199037 5.849215,-13.048255 13.048255,-13.048255 7.19904,0 13.04826,5.849218 13.04826,13.048255 0,7.049055 -5.84922,13.048255 -13.04826,13.048255 z"
   id="path888"
   style="stroke-width:1.4998" />

</svg>
