<?xml version="1.0" encoding="UTF-8" standalone="no"?>
<svg
   version="1.2"
   viewBox="0 0 512 512"
   width="512"
   height="512"
   id="svg391"
   sodipodi:docname="steam.svg"
   inkscape:export-filename="steam.png"
   inkscape:export-xdpi="96"
   inkscape:export-ydpi="96"
   xmlns:inkscape="http://www.inkscape.org/namespaces/inkscape"
   xmlns:sodipodi="http://sodipodi.sourceforge.net/DTD/sodipodi-0.dtd"
   xmlns="http://www.w3.org/2000/svg"
   xmlns:svg="http://www.w3.org/2000/svg">
  <sodipodi:namedview
     id="namedview393"
     pagecolor="#ffffff"
     bordercolor="#000000"
     borderopacity="0.25"
     inkscape:showpageshadow="2"
     inkscape:pageopacity="0.0"
     inkscape:pagecheckerboard="0"
     inkscape:deskcolor="#d1d1d1"
     showgrid="false" />
  <title
     id="title364">steam-svg</title>
  <defs
     id="defs381" />
  <style
     id="style383">
		.s0 { fill: url(#g1) } 
		.s1 { fill: #ffffff } 
	</style>
  <g
     id="B">
    <g
       id="g388">
      <path
         id="Layer"
         class="s0"
         d="m 255.69922,3.9003906 c -133.59987,0 -242.90001,104.0005194 -251.5000012,235.4003894 0.036045,0.0604 0.063663,0.11356 0.099609,0.17383 2.92e-5,-4.7e-4 0.00195,-0.0742 0.00195,-0.0742 L 139.69922,295.19922 142.5,293.40039 c 1,-0.53333 1.96706,-1.06628 2.90039,-1.59961 1,-0.53333 2,-1.03333 3,-1.5 1.06667,-0.46666 2.09961,-0.93372 3.09961,-1.40039 9.49999,-3.9 19.50001,-5.60117 29.5,-5.20117 l 61.69922,-89.59961 v -1.19922 h -0.0996 C 242.59961,140.00044 285.60044,97 338.40039,97 c 52.79995,0.1 95.69922,43.00044 95.69922,95.90039 0,52.89995 -42.89927,95.90039 -95.69922,95.90039 h -2.20117 l -88.19922,63 c 0.0667,2.46667 7.8e-4,4.93177 -0.19922,7.39844 -0.2,2.46666 -0.53333,4.90078 -1,7.30078 -0.4,2.4 -0.96784,4.79922 -1.70117,7.19922 -0.66667,2.33333 -1.5,4.63372 -2.5,6.90039 -3.5,8.49999 -8.69923,16.20118 -15.19922,22.70117 -6.49999,6.39999 -14.20118,11.59961 -22.70117,15.09961 -8.49999,3.5 -17.49923,5.29922 -26.69922,5.19922 -9.19999,0 -18.30079,-1.79883 -26.80078,-5.29883 -21.69998,-9.09999 -36.49883,-27.90041 -41.29883,-49.40039 L 14.535156,329.53906 C 46.06633,432.8012 142.08303,508.09961 255.69922,508.09961 c 139.19986,0 252,-112.89975 252,-252.09961 0,-139.19986 -112.80014,-252.0996094 -252,-252.0996094 z M 338.40039,129 c -8.39999,0 -16.7004,1.70039 -24.40039,4.90039 -7.69999,3.2 -14.79922,7.9004 -20.69922,13.90039 -5.89999,5.9 -10.60078,12.89923 -13.80078,20.69922 -3.2,7.69999 -4.90039,16.0004 -4.90039,24.40039 0,8.39999 1.70039,16.7004 4.90039,24.40039 3.2,7.69999 7.90079,14.79923 13.80078,20.69922 5.9,5.89999 12.99923,10.70039 20.69922,13.90039 7.69999,3.2 16.0004,4.90039 24.40039,4.90039 8.39999,0 16.7004,-1.70039 24.40039,-4.90039 7.79999,-3.2 14.79923,-8.0004 20.69922,-13.90039 5.89999,-5.89999 10.60039,-12.99923 13.90039,-20.69922 3.2,-7.69999 4.79883,-16.0004 4.79883,-24.40039 0,-8.39999 -1.59844,-16.7004 -4.89844,-24.40039 -3.2,-7.79999 -7.90079,-14.79922 -13.80078,-20.69922 -5.89999,-5.99999 -12.89923,-10.70039 -20.69922,-13.90039 C 355.10079,130.70039 346.80038,129 338.40039,129 Z m 0.0996,15.80078 c 26.39997,0 47.90039,21.50003 47.90039,48 0,6.29999 -1.19961,12.49884 -3.59961,18.29883 -2.4,5.89999 -5.90039,11.09961 -10.40039,15.59961 -4.39999,4.49999 -9.70001,8.00039 -15.5,10.40039 -5.89999,2.4 -12.1004,3.70117 -18.40039,3.70117 -6.29999,0 -12.50079,-1.30117 -18.30078,-3.70117 -5.8,-2.4 -11.09962,-6.0004 -15.59961,-10.40039 -4.4,-4.5 -7.89883,-9.79962 -10.29883,-15.59961 -2.5,-5.79999 -3.70117,-11.99884 -3.70117,-18.29883 0,-6.29999 1.30117,-12.6004 3.70117,-18.40039 2.4,-5.79999 5.89883,-11.1 10.29883,-15.5 4.49999,-4.49999 9.79961,-8 15.59961,-10.5 5.79999,-2.4 12.00079,-3.59961 18.30078,-3.59961 z m -159.9375,154.875 c -6.73749,-0.05 -13.36251,1.17344 -19.5625,3.52344 L 191.30078,316.5 c 4.8,2.1 9.19883,4.99922 12.79883,8.69922 3.7,3.7 6.59961,8.10039 8.59961,12.90039 2,4.79999 3,10.00118 3,15.20117 0,5.3 -1,10.39922 -3,15.19922 -2,4.9 -4.99922,9.20039 -8.69922,12.90039 -3.7,3.7 -8.0004,6.59961 -12.90039,8.59961 -4.8,2 -9.89922,3 -15.19922,3 -5.19999,0 -10.30118,-1 -15.20117,-3 l -31.09961,-13 c 1.4,3 3.06667,5.83334 5,8.5 1.93333,2.6 4.06706,5.03412 6.40039,7.30078 2.4,2.26667 4.96589,4.29961 7.69922,6.09961 2.73333,1.8 5.60156,3.33294 8.60156,4.59961 27.49997,11.49999 59.09962,-1.49964 70.59961,-29.09961 5.4,-13.29999 5.5,-28.00079 0,-41.30078 -5.49999,-13.29999 -15.69962,-23.79883 -29.09961,-29.29883 -6.64999,-2.75 -13.50079,-4.075 -20.23828,-4.125 z"
         style="fill:#ffffff" />
    </g>
  </g>
</svg>
